<?xml version="1.0" encoding="UTF-8" standalone="no"?>
<svg
   xmlns:dc="http://purl.org/dc/elements/1.1/"
   xmlns:cc="http://creativecommons.org/ns#"
   xmlns:rdf="http://www.w3.org/1999/02/22-rdf-syntax-ns#"
   xmlns:svg="http://www.w3.org/2000/svg"
   xmlns="http://www.w3.org/2000/svg"
   viewBox="0 0 360 321.33334"
   height="321.33334"
   width="360"
   xml:space="preserve"
   id="svg2"
   version="1.1"><metadata
     id="metadata8"><rdf:RDF><cc:Work
         rdf:about=""><dc:format>image/svg+xml</dc:format><dc:type
           rdf:resource="http://purl.org/dc/dcmitype/StillImage" /></cc:Work></rdf:RDF></metadata><defs
     id="defs6" /><g
     transform="matrix(1.3333333,0,0,-1.3333333,0,321.33333)"
     id="g10"><g
       transform="scale(0.1)"
       id="g12"><path
         id="path14"
         style="fill:#ab8f2e;fill-opacity:1;fill-rule:evenodd;stroke:none"
         d="m 1348.83,2272.7 c 155.62,-1.18 300.35,-32.04 434.18,-92.7 133.87,-60.23 250.04,-143.79 348.4,-250.55 98.82,-106.4 173.2,-229.22 223.12,-368.4 h 144.77 c -51.92,165.12 -133.87,311.18 -246.02,438.21 -111.72,127.38 -245.04,227.26 -399.88,299.76 -154.85,72.46 -323.05,109.46 -504.57,110.98 -181.56,-1.52 -349.728,-38.52 -504.611,-110.98 C 689.41,2226.52 555.898,2126.64 443.75,1999.26 332.031,1872.23 250.23,1726.17 198.359,1561.05 h 144.762 c 49.93,139.18 124.109,262 222.539,368.4 98.75,106.76 215.078,190.32 348.949,250.55 133.871,60.66 278.591,91.52 434.221,92.7 m 854.1,-1704.22 h 166.48 C 2297.73,454.41 2209.8,355.082 2105.66,270.43 2001.17,186.129 1884.88,120.512 1756.68,73.6289 1628.55,26.6797 1492.62,2.89063 1348.83,2.10938 1205.04,2.89063 1068.91,26.6797 940.352,73.6289 812.23,120.512 696.051,186.129 591.988,270.43 487.852,355.082 399.922,454.41 328.238,568.48 H 494.73 C 559.922,481.129 636.762,405.621 725.23,341.91 813.359,277.809 910,228.281 1015.31,193.16 c 105.63,-35.07 216.8,-53 333.52,-53.75 116.68,0.36 227.89,18.289 333.51,53.75 105.28,35.121 201.96,84.5 290.04,148.172 88.52,64.098 165.32,139.797 230.55,227.148" /><path
         id="path16"
         style="fill:#8c9935;fill-opacity:1;fill-rule:evenodd;stroke:none"
         d="m 1003.28,1643.4 c -10.659,-6.88 -16.561,-15.98 -17.729,-27.42 -1.172,-11.45 2.687,-21.02 11.437,-28.6 8.752,-7.65 22.892,-9.37 42.312,-5.19 25.19,6.48 56.87,8.4 95,5.7 38.12,-2.62 76.44,-10.08 115,-22.3 38.12,-11.8 69.76,-28.95 94.96,-51.49 -14.53,22.54 -35.9,44.06 -64.1,64.69 -28.21,20.55 -59.5,37.93 -93.79,52.03 -34.34,14.49 -67.74,23.28 -100.12,26.33 -32.46,3.01 -60.08,-1.53 -82.97,-13.75 m 573.2,123.59 c 11.45,19.03 15.47,38.52 12.04,58.32 -3.44,19.49 -13.56,34.92 -30.32,46.37 -17.15,10.31 -35.31,12.58 -54.33,6.87 -19.46,-5.39 -35.32,-17.34 -47.5,-36.09 -6.1,-10.27 -14.3,-30.12 -24.61,-59.45 -10.28,-29.38 -20.78,-61.21 -31.45,-95.55 -10.7,-33.94 -19.61,-63.32 -26.91,-88.12 -7.23,-24.77 -11.06,-37.74 -11.45,-38.87 1.17,0.74 11.29,9.73 30.35,26.91 19.03,17.5 41.76,38.28 68.09,62.35 26.33,24.37 50.55,47.46 72.66,69.22 22.11,22.1 36.6,38.12 43.43,48.04 m -228.24,190.47 c -20.19,-0.35 -36.79,-7.97 -49.76,-22.85 -13.36,-14.88 -20.39,-33.59 -21.18,-56.06 0.4,-11.83 4.03,-33 10.86,-63.51 7.27,-30.12 15.47,-62.54 24.65,-97.27 9.1,-34.33 17.35,-63.86 24.57,-88.67 6.88,-25.15 10.51,-38.36 10.86,-39.45 0.39,1.09 4.03,14.1 10.86,38.87 7.27,25.15 15.47,54.92 24.61,89.25 9.18,34.73 17.34,67.15 24.61,97.27 6.88,30.51 10.51,51.68 10.86,63.51 -0.35,22.47 -7.27,41.18 -20.59,56.06 -13.36,14.88 -30.15,22.5 -50.35,22.85 m -13.71,-396.99 c -0.43,1.13 -4.22,14.1 -11.44,38.87 -7.27,24.8 -16.25,54.18 -26.92,88.12 -10.66,34.34 -21.13,66.17 -31.48,95.55 -9.85,29.33 -18.09,49.18 -24.57,59.45 -12.19,18.75 -27.85,30.7 -46.92,36.09 -19.45,5.32 -37.73,3.05 -54.88,-6.87 -16.8,-11.45 -26.72,-26.88 -29.77,-46.37 -3.43,-19.8 0.59,-39.29 12.04,-58.32 6.83,-9.92 21.32,-25.94 43.47,-48.04 21.72,-21.76 45.74,-44.85 72.03,-69.22 26.33,-24.07 49.03,-44.85 68.13,-62.35 19.45,-17.18 29.53,-26.17 30.31,-26.91 m 322.62,21.72 c -25.16,6.48 -56.8,8.4 -94.96,5.7 -38.13,-2.62 -76.25,-10.08 -114.42,-22.3 -38.47,-11.8 -70.35,-28.95 -95.5,-51.49 14.49,22.54 35.85,44.06 64.06,64.69 28.24,20.55 59.53,37.93 93.83,52.03 34.33,14.49 67.69,23.28 100.11,26.33 32.78,3.01 60.63,-1.53 83.48,-13.75 10.7,-6.88 16.41,-15.98 17.19,-27.42 1.17,-11.45 -2.66,-21.02 -11.45,-28.6 -8.75,-7.65 -22.89,-9.37 -42.34,-5.19 m -308.91,588.71 c -136.52,-0.78 -263.75,-27.11 -381.56,-78.99 -118.239,-51.48 -221.602,-123 -310.078,-214.53 -88.872,-91.13 -157.301,-196.6 -205.352,-316.33 -10.699,-27.5 -20.23,-55.5 -28.629,-84.14 H 17.5781 v -22.89 H 439.801 c 9.929,36.64 21.879,72.31 36.019,107.03 47.7,115.51 114.801,217.19 201.371,304.89 86.168,87.73 186.52,156.56 300.93,206.52 114.769,49.57 238.169,74.77 370.119,75.55 132.35,-0.78 255.74,-25.98 370.16,-75.55 114.41,-49.96 214.88,-118.79 301.44,-206.52 86.21,-87.7 153.17,-189.38 200.82,-304.89 14.14,-34.72 26.33,-70.39 36.61,-107.03 h 421.64 v 22.89 h -404.5 c -8.32,28.64 -18.08,56.64 -29.14,84.14 -48.08,119.73 -116.32,225.4 -204.8,316.92 -88.87,91.13 -192.23,162.46 -310.04,213.94 -118.28,51.88 -245.66,78.21 -382.19,78.99 M 625.121,567.891 C 601.48,594.57 579.379,622.66 558.75,651.988 H 17.5781 v 22.891 H 570.781 c 25.938,-37.77 54.34,-73.43 85.239,-106.988 86.992,-94.219 189.761,-168.161 308.359,-221.95 118.241,-53.793 246.211,-81.25 383.861,-82.421 137.7,1.171 265.82,28.628 384.46,82.421 118.2,53.789 221.01,127.731 308.35,221.95 30.86,33.558 59.3,69.218 85.24,106.988 h 552.62 V 651.988 H 2137.7 C 2117.11,622.66 2095,594.57 2071.33,567.891 1981.72,466.84 1875.12,387.301 1751.56,329.34 c -123.94,-57.969 -258.4,-87.539 -403.32,-88.68 -144.88,1.141 -279.18,30.711 -402.728,88.68 -123.953,57.961 -230.742,137.5 -320.391,238.551" /><path
         id="path18"
         style="fill:#685751;fill-opacity:1;fill-rule:evenodd;stroke:none"
         d="m 739.141,1377.19 c 12.308,0 23.007,-1.06 32.109,-3.09 9.059,-2.07 16.641,-4.88 22.66,-8.51 6.051,-3.64 10.539,-7.93 13.551,-12.86 2.969,-4.92 4.449,-10.23 4.449,-15.97 0,-3.87 -0.781,-7.38 -2.34,-10.47 -1.601,-3.13 -3.789,-5.74 -6.601,-7.93 -2.809,-2.15 -6.129,-3.83 -9.918,-5 -3.832,-1.17 -7.973,-1.76 -12.43,-1.76 0,5.63 -0.699,11.21 -2.18,16.72 -1.453,5.51 -3.871,10.43 -7.191,14.84 -3.359,4.38 -7.699,7.97 -13.012,10.71 -5.347,2.77 -11.949,4.14 -19.797,4.14 -13.601,0 -25.121,-2.5 -34.613,-7.46 -9.488,-5 -17.226,-12.27 -23.207,-21.8 -5.973,-9.57 -10.312,-21.33 -13,-35.35 -2.699,-13.99 -4.07,-30 -4.07,-48.05 0,-16.05 1.41,-30.78 4.219,-44.14 2.82,-13.36 7.269,-24.8 13.359,-34.37 6.101,-9.54 13.871,-16.96 23.32,-22.23 9.422,-5.27 20.75,-7.89 33.992,-7.89 8.789,0 16.559,0.82 23.321,2.54 6.718,1.68 12.648,3.94 17.808,6.76 5.16,2.81 9.731,6.05 13.629,9.76 3.949,3.67 7.422,7.54 10.473,11.52 1.988,-1.28 3.629,-3.04 4.918,-5.27 1.289,-2.23 1.922,-5.15 1.922,-8.79 0,-4.57 -1.532,-9.26 -4.653,-13.98 -3.089,-4.77 -7.808,-9.06 -14.14,-12.93 -6.328,-3.87 -14.379,-7.07 -24.098,-9.57 -9.73,-2.54 -21.25,-3.79 -34.609,-3.79 -17.934,0 -33.711,3.16 -47.313,9.49 -13.59,6.33 -24.961,15.31 -34.179,26.92 -9.18,11.6 -16.129,25.54 -20.821,41.83 -4.679,16.29 -7.027,34.34 -7.027,54.14 0,19.45 2.457,37.27 7.379,53.44 4.929,16.17 12.23,30.04 21.879,41.64 9.691,11.6 21.718,20.62 36.129,27.07 14.421,6.45 31.101,9.69 50.082,9.69 z m 187.23,-245.59 h 1.051 v -15.12 h -96.871 v 15.12 h 2.808 c 4.102,0 7.969,0.31 11.52,0.9 3.601,0.59 6.68,1.76 9.34,3.59 2.621,1.8 4.73,4.42 6.332,7.82 1.558,3.39 2.34,7.93 2.34,13.55 v 193.01 c 0,5.27 -0.782,9.49 -2.34,12.73 -1.602,3.21 -3.75,5.71 -6.449,7.46 -2.692,1.76 -5.821,2.89 -9.372,3.44 -3.601,0.51 -7.39,0.78 -11.371,0.78 h -2.808 V 1390 h 66.289 v -79.1 c 0,-3.28 -0.078,-6.72 -0.199,-10.28 -0.121,-3.59 -0.27,-6.87 -0.512,-9.92 -0.231,-3.51 -0.469,-6.99 -0.699,-10.39 h 1.761 c 10.778,21.8 28.399,32.7 52.887,32.7 10.192,0 19.262,-1.37 27.192,-4.14 7.89,-2.74 14.531,-6.96 19.921,-12.66 5.389,-5.66 9.489,-12.97 12.299,-21.87 2.81,-8.91 4.22,-19.5 4.22,-31.8 v -85.08 c 0,-5.62 0.7,-10.16 2.11,-13.55 1.41,-3.4 3.36,-6.02 5.82,-7.82 2.46,-1.83 5.39,-3 8.79,-3.59 3.4,-0.59 7.07,-0.9 11.05,-0.9 h 1.06 v -15.12 h -62.579 v 124.3 c 0,7.85 -0.699,14.81 -2.109,20.9 -1.403,6.09 -3.633,11.25 -6.762,15.47 -3.078,4.22 -7.18,7.42 -12.219,9.57 -5.043,2.19 -11.172,3.28 -18.441,3.28 -7.5,0 -13.981,-1.41 -19.41,-4.14 -5.469,-2.77 -9.969,-6.68 -13.559,-11.8 -3.551,-5.08 -6.25,-11.25 -8.012,-18.44 -1.75,-7.22 -2.609,-15.19 -2.609,-23.98 v -75.94 c 0,-5.27 0.781,-9.53 2.379,-12.77 1.562,-3.2 3.711,-5.63 6.402,-7.27 2.699,-1.64 5.828,-2.73 9.418,-3.28 3.551,-0.5 7.34,-0.78 11.332,-0.78 z m 179.099,37.11 c 0,-11.25 2.38,-19.69 7.15,-25.23 4.72,-5.59 12.07,-8.36 22.03,-8.36 7.26,0 13.87,1.17 19.8,3.51 5.9,2.35 10.94,5.71 15.12,10.04 4.14,4.34 7.34,9.61 9.57,15.82 2.23,6.21 3.32,13.13 3.32,20.74 v 29.18 l -23.01,-1.05 c -10.19,-0.47 -18.71,-1.76 -25.58,-3.79 -6.84,-2.07 -12.39,-4.92 -16.6,-8.63 -4.22,-3.67 -7.23,-8.21 -9.07,-13.6 -1.79,-5.39 -2.73,-11.6 -2.73,-18.63 z m 43.59,126.37 c -6.91,0 -12.5,-0.98 -16.76,-2.89 -4.29,-1.96 -7.61,-4.65 -10.03,-8.17 -2.39,-3.51 -4.03,-7.69 -4.85,-12.5 -0.82,-4.8 -1.21,-10 -1.21,-15.62 -9.96,0 -17.54,1.68 -22.77,5.08 -5.2,3.4 -7.82,9.25 -7.82,17.57 0,6.22 1.68,11.49 5.08,15.83 3.4,4.33 8.09,7.89 13.99,10.62 5.93,2.77 12.81,4.8 20.66,6.09 7.85,1.29 16.21,1.92 25.12,1.92 11.01,0 20.62,-1.1 28.83,-3.24 8.2,-2.19 15.08,-5.71 20.58,-10.63 5.51,-4.92 9.65,-11.37 12.39,-19.26 2.77,-7.93 4.14,-17.61 4.14,-29.1 v -93.32 c 0,-5.04 0.39,-9.22 1.21,-12.5 0.82,-3.28 2.11,-5.9 3.86,-7.89 1.76,-1.99 4.11,-3.4 6.96,-4.22 2.89,-0.82 6.29,-1.25 10.27,-1.25 h 1.06 v -15.12 h -48.68 l -5.62,30.94 h -3.01 c -3.75,-5.04 -7.38,-9.65 -10.9,-13.87 -3.51,-4.21 -7.38,-7.85 -11.6,-10.89 -4.22,-3.05 -8.98,-5.43 -14.3,-7.15 -5.35,-1.68 -11.75,-2.54 -19.25,-2.54 -7.97,0 -15.39,1.13 -22.23,3.44 -6.88,2.26 -12.77,5.78 -17.77,10.54 -4.96,4.73 -8.87,10.71 -11.68,17.93 -2.82,7.19 -4.22,15.74 -4.22,25.59 0,19.1 6.79,33.28 20.39,42.54 13.59,9.26 34.14,14.29 61.68,15.11 l 29.88,1.06 v 21.6 c 0,6.45 -0.35,12.38 -1.05,17.85 -0.71,5.43 -2.23,10.12 -4.57,14.07 -2.35,3.9 -5.71,6.95 -10.08,9.14 -4.42,2.14 -10.31,3.24 -17.7,3.24 z m 211.99,-163.48 h 1.06 v -15.12 h -96.84 v 15.12 h 2.97 c 4.1,0 7.97,0.31 11.53,0.9 3.59,0.59 6.68,1.76 9.33,3.59 2.62,1.8 4.73,4.42 6.33,7.82 1.56,3.39 2.34,7.93 2.34,13.55 v 112.31 c 0,5.27 -0.78,9.53 -2.34,12.73 -1.6,3.24 -3.75,5.74 -6.45,7.5 -2.69,1.76 -5.82,2.93 -9.37,3.52 -3.59,0.58 -7.38,0.86 -11.37,0.86 h -1.05 v 15.11 h 58.2 l 4.73,-29.18 h 1.76 c 3.74,6.68 7.73,12.15 11.87,16.45 4.18,4.26 8.55,7.62 13.2,10 4.61,2.42 9.53,4.06 14.77,4.92 5.19,0.9 10.66,1.33 16.4,1.33 9.5,0 17.97,-1.37 25.43,-4.14 7.43,-2.74 13.75,-6.96 18.99,-12.66 5.19,-5.66 9.18,-12.97 11.95,-21.87 2.74,-8.91 4.1,-19.5 4.1,-31.8 v -85.08 c 0,-5.62 0.71,-10.16 2.03,-13.55 1.37,-3.4 3.25,-6.02 5.71,-7.82 2.46,-1.83 5.39,-3 8.79,-3.59 3.4,-0.59 7.11,-0.9 11.09,-0.9 h 1.21 v -15.12 h -62.73 v 124.3 c 0,7.85 -0.71,14.81 -2.11,20.9 -1.41,6.09 -3.67,11.25 -6.76,15.47 -3.12,4.22 -7.19,7.42 -12.23,9.57 -5.04,2.19 -11.21,3.28 -18.47,3.28 -8.21,0 -15.08,-1.6 -20.63,-4.77 -5.58,-3.16 -10.08,-7.42 -13.47,-12.81 -3.4,-5.39 -5.82,-11.6 -7.27,-18.63 -1.48,-7.03 -2.23,-14.41 -2.23,-22.15 v -75.94 c 0,-5.27 0.82,-9.53 2.39,-12.77 1.6,-3.2 3.71,-5.63 6.4,-7.27 2.7,-1.64 5.86,-2.73 9.42,-3.28 3.59,-0.5 7.34,-0.78 11.32,-0.78 z m 228.36,-18.63 c -11.95,0 -22.96,1.83 -33.04,5.55 -10.08,3.67 -18.75,9.53 -26.02,17.5 -7.26,7.96 -12.93,18.16 -16.95,30.66 -4.06,12.46 -6.1,27.58 -6.1,45.27 0,19.22 2.04,35.28 6.1,48.25 4.02,12.92 9.65,23.35 16.87,31.21 7.19,7.85 15.71,13.39 25.47,16.68 9.81,3.28 20.35,4.92 31.72,4.92 7.5,0 15,-0.74 22.42,-2.19 7.46,-1.48 14.14,-3.71 20.12,-6.76 5.98,-3.04 10.86,-6.91 14.61,-11.52 3.75,-4.65 5.62,-10.04 5.62,-16.25 0,-8.32 -2.69,-14.18 -8.08,-17.58 -5.39,-3.4 -13.44,-5.12 -24.1,-5.12 0,5.63 -0.47,10.98 -1.41,16.02 -0.94,5.04 -2.54,9.45 -4.8,13.24 -2.31,3.83 -5.39,6.8 -9.34,8.99 -3.91,2.14 -8.95,3.24 -15.04,3.24 -6.91,0 -13.12,-1.29 -18.71,-3.87 -5.55,-2.58 -10.35,-7.03 -14.34,-13.36 -3.98,-6.33 -7.03,-14.8 -9.14,-25.47 -2.11,-10.66 -3.16,-24.02 -3.16,-40.08 0,-25.54 4.26,-44.6 12.77,-57.14 8.48,-12.54 22.39,-18.79 41.72,-18.79 11.13,0 20.86,2.34 29.18,7.03 8.32,4.69 14.53,10.7 18.63,18.08 1.76,-1.4 3.25,-3.28 4.42,-5.62 1.17,-2.34 1.76,-5.16 1.76,-8.44 0,-4.1 -1.29,-8.2 -3.87,-12.3 -2.58,-4.1 -6.41,-7.78 -11.52,-11.06 -5.08,-3.28 -11.45,-5.97 -19.07,-8.01 -7.61,-2.07 -16.52,-3.08 -26.72,-3.08 z m 128.13,55.74 c 0,-11.25 2.38,-19.69 7.15,-25.23 4.72,-5.59 12.07,-8.36 22.03,-8.36 7.26,0 13.87,1.17 19.8,3.51 5.9,2.35 10.94,5.71 15.12,10.04 4.14,4.34 7.34,9.61 9.57,15.82 2.23,6.21 3.32,13.13 3.32,20.74 v 29.18 l -23.01,-1.05 c -10.19,-0.47 -18.71,-1.76 -25.58,-3.79 -6.84,-2.07 -12.39,-4.92 -16.6,-8.63 -4.22,-3.67 -7.23,-8.21 -9.07,-13.6 -1.79,-5.39 -2.73,-11.6 -2.73,-18.63 z m 43.59,126.37 c -6.91,0 -12.5,-0.98 -16.75,-2.89 -4.3,-1.96 -7.62,-4.65 -10.04,-8.17 -2.39,-3.51 -4.03,-7.69 -4.85,-12.5 -0.82,-4.8 -1.21,-10 -1.21,-15.62 -9.96,0 -17.54,1.68 -22.77,5.08 -5.2,3.4 -7.81,9.25 -7.81,17.57 0,6.22 1.68,11.49 5.07,15.83 3.4,4.33 8.09,7.89 13.99,10.62 5.94,2.77 12.81,4.8 20.66,6.09 7.85,1.29 16.21,1.92 25.12,1.92 11.01,0 20.62,-1.1 28.83,-3.24 8.2,-2.19 15.08,-5.71 20.58,-10.63 5.51,-4.92 9.65,-11.37 12.39,-19.26 2.77,-7.93 4.14,-17.61 4.14,-29.1 v -93.32 c 0,-5.04 0.39,-9.22 1.21,-12.5 0.82,-3.28 2.11,-5.9 3.86,-7.89 1.76,-1.99 4.11,-3.4 6.96,-4.22 2.89,-0.82 6.29,-1.25 10.27,-1.25 h 1.06 v -15.12 h -48.68 l -5.62,30.94 h -3.01 c -3.75,-5.04 -7.38,-9.65 -10.9,-13.87 -3.51,-4.21 -7.38,-7.85 -11.6,-10.89 -4.22,-3.05 -8.98,-5.43 -14.3,-7.15 -5.35,-1.68 -11.75,-2.54 -19.25,-2.54 -7.97,0 -15.39,1.13 -22.23,3.44 -6.87,2.26 -12.77,5.78 -17.77,10.54 -4.96,4.73 -8.87,10.71 -11.68,17.93 -2.82,7.19 -4.22,15.74 -4.22,25.59 0,19.1 6.8,33.28 20.39,42.54 13.59,9.26 34.14,14.29 61.68,15.11 l 29.88,1.06 v 21.6 c 0,6.45 -0.35,12.38 -1.05,17.85 -0.71,5.43 -2.23,10.12 -4.57,14.07 -2.35,3.9 -5.71,6.95 -10.08,9.14 -4.42,2.14 -10.31,3.24 -17.7,3.24 z m 227.46,14.41 h 74.89 v -15.11 h -1.06 c -3.51,0 -6.52,-0.4 -9.02,-1.14 -2.54,-0.78 -4.81,-2.19 -6.88,-4.29 -2.03,-2.11 -3.94,-5 -5.7,-8.64 -1.76,-3.63 -3.71,-8.32 -5.82,-14.06 l -54.65,-151.17 c -4.22,-11.6 -8.2,-21.8 -11.95,-30.59 -3.75,-8.79 -7.7,-16.33 -11.8,-22.58 -4.1,-6.29 -8.55,-11.44 -13.44,-15.54 -4.84,-4.1 -10.39,-7.39 -16.6,-9.85 -6.21,-2.46 -13.36,-4.18 -21.44,-5.11 -8.09,-0.94 -17.46,-1.41 -28.13,-1.41 h -3.16 v 17.07 c 12.19,0 22.65,1.8 31.44,5.43 8.79,3.63 16.41,8.63 22.78,14.96 6.4,6.33 11.72,13.79 16.01,22.38 4.26,8.64 7.85,17.97 10.78,28.05 l -66.6,157.34 c -1.64,3.75 -3.24,6.8 -4.76,9.22 -1.53,2.39 -3.25,4.38 -5.16,5.9 -1.95,1.53 -4.18,2.58 -6.68,3.17 -2.54,0.58 -5.55,0.86 -9.06,0.86 h -1.06 v 15.11 h 86.49 v -15.11 h -1.06 c -7.26,0 -12.69,-1.41 -16.25,-4.22 -3.59,-2.82 -5.39,-7.19 -5.39,-13.17 0,-1.99 0.24,-4.02 0.63,-6.09 0.43,-2.03 1.13,-4.42 2.18,-7.11 l 26.37,-64.14 c 1.64,-4.1 3.4,-8.6 5.2,-13.48 1.83,-4.84 3.51,-9.65 5.11,-14.41 1.57,-4.73 3.01,-9.22 4.3,-13.44 1.29,-4.22 2.15,-7.85 2.62,-10.9 h 1.05 c 1.29,5.28 3.09,11.68 5.39,19.26 2.27,7.54 4.93,15.66 7.97,24.34 l 24.1,70.15 c 1.06,2.93 1.84,5.74 2.39,8.44 0.5,2.69 0.78,5.04 0.78,7.03 0,6.21 -1.95,10.7 -5.9,13.52 -3.91,2.81 -9.88,4.22 -17.85,4.22 h -1.06 z" /><path
         id="path20"
         style="fill:#7a5c28;fill-opacity:1;fill-rule:evenodd;stroke:none"
         d="M 0,910.98 H 75.8984 V 897.191 H 46.0195 V 761.48 H 29.8789 V 897.191 H 0 Z M 121.91,866.602 V 761.48 h -16.129 v 149.5 h 6.918 l 6.68,-17 c 4.883,13.641 12.73,20.469 23.43,20.469 18.281,0 27.39,-10 27.39,-29.918 V 869.57 h -15.398 v 15.899 c 0,10.121 -4.211,15.152 -12.653,15.152 -5.078,0 -9.687,-2.891 -13.91,-8.711 -4.218,-5.859 -6.328,-14.25 -6.328,-25.308 z M 269.102,882.23 V 761.48 h -6.911 l -5.98,14.731 c -3.199,-5.512 -7.422,-9.922 -12.66,-13.242 -5.192,-3.278 -10.93,-4.918 -17.223,-4.918 -22.066,0 -33.129,10.738 -33.129,32.179 v 23.008 c 0,21.453 11.063,32.192 33.129,32.192 h 26.684 v 37.73 c 0,5.512 -1.762,9.809 -5.313,12.891 -3.519,3.051 -8.719,4.57 -15.629,4.57 -13.629,0 -20.468,-5.82 -20.468,-17.461 v -13.59 h -16.09 v 12.66 c 0,10.27 3.008,18.2 9.058,23.821 6.051,5.59 15.231,8.398 27.5,8.398 12.27,0 21.52,-2.808 27.7,-8.398 6.21,-5.621 9.332,-13.551 9.332,-23.821 z m -16.09,-88.089 v 37.5 h -26.684 c -6.449,0 -10.898,-1.602 -13.359,-4.84 -2.457,-3.211 -3.668,-7.742 -3.668,-13.563 V 790.23 c 0,-5.82 1.211,-10.351 3.668,-13.55 2.461,-3.239 6.91,-4.84 13.359,-4.84 6.442,0 12.422,2.5 17.934,7.461 5.508,5 8.437,9.961 8.75,14.84 z M 349.84,761.48 h -37.031 v 149.5 h 37.031 c 11.961,0 21.019,-2.82 27.23,-8.519 6.211,-5.66 9.34,-13.551 9.34,-23.672 v -85.117 c 0,-10.274 -3.09,-18.203 -9.219,-23.793 -6.14,-5.578 -15.242,-8.399 -27.351,-8.399 z m 20.469,32.192 v 85.117 c 0,5.82 -1.758,10.352 -5.309,13.551 -3.52,3.25 -8.59,4.851 -15.16,4.851 H 328.91 V 775.27 h 20.93 c 13.64,0 20.469,6.14 20.469,18.402 z m 74.73,117.308 v -149.5 h -16.09 v 149.5 z m 42.582,-123.05 v 123.05 h 50.578 v -13.789 h -34.488 v -110.16 c 0,-4.301 1.09,-7.929 3.32,-10.82 2.231,-2.93 5.348,-4.371 9.449,-4.371 4.071,0 7.149,1.398 9.301,4.25 2.149,2.859 3.199,6.488 3.199,10.941 v 27.348 h 16.141 V 787.93 c 0,-9.649 -2.582,-17.032 -7.742,-22.192 -5.109,-5.117 -12.07,-7.687 -20.82,-7.687 -8.707,0 -15.739,2.57 -21.008,7.687 -5.321,5.16 -7.93,12.543 -7.93,22.192 z m 105.777,123.05 v -149.5 h -16.097 v 149.5 z m 120.743,-28.75 v -92 c 0,-10.269 -3.243,-18.199 -9.762,-23.781 -6.527,-5.629 -16.258,-8.398 -29.219,-8.398 -12.93,0 -22.738,2.769 -29.301,8.398 -6.597,5.582 -9.918,13.512 -9.918,23.781 v 92 c 0,10.27 3.278,18.2 9.797,23.821 6.492,5.59 16.25,8.398 29.184,8.398 12.969,0 22.738,-2.808 29.34,-8.398 6.597,-5.621 9.879,-13.551 9.879,-23.821 z m -16.09,-92 v 92 c 0,12.258 -7.66,18.391 -23.012,18.391 -15.309,0 -23.008,-6.133 -23.008,-18.391 v -92 c 0,-12.261 7.699,-18.39 23.008,-18.39 15.352,0 23.012,6.129 23.012,18.39 z m 74.758,87.43 V 761.48 h -16.09 v 149.5 h 6.871 l 5.75,-14.929 c 7.379,12.269 17.57,18.398 30.582,18.398 22.539,0 33.828,-10.738 33.828,-32.219 V 761.48 h -16.09 v 120.75 c 0,5.821 -1.289,10.348 -3.789,13.59 -2.543,3.2 -7.191,4.801 -13.949,4.801 -6.723,0 -12.934,-2.57 -18.594,-7.812 -5.707,-5.188 -8.519,-10.27 -8.519,-15.149 z m 175.941,4.57 V 761.48 h -6.91 l -5.981,14.731 c -3.199,-5.512 -7.418,-9.922 -12.66,-13.242 -5.187,-3.278 -10.929,-4.918 -17.219,-4.918 -22.07,0 -33.128,10.738 -33.128,32.179 v 23.008 c 0,21.453 11.058,32.192 33.128,32.192 h 26.68 v 37.73 c 0,5.512 -1.762,9.809 -5.32,12.891 -3.512,3.051 -8.711,4.57 -15.621,4.57 -13.629,0 -20.469,-5.82 -20.469,-17.461 v -13.59 h -16.09 v 12.66 c 0,10.27 3,18.2 9.059,23.821 6.051,5.59 15.23,8.398 27.5,8.398 12.261,0 21.519,-2.808 27.73,-8.398 6.211,-5.621 9.301,-13.551 9.301,-23.821 z m -16.09,-88.089 v 37.5 h -26.68 c -6.449,0 -10.902,-1.602 -13.359,-4.84 -2.422,-3.211 -3.672,-7.742 -3.672,-13.563 V 790.23 c 0,-5.82 1.25,-10.351 3.672,-13.55 2.457,-3.239 6.91,-4.84 13.359,-4.84 6.442,0 12.418,2.5 17.93,7.461 5.5,5 8.43,9.961 8.75,14.84 z m 117.96,-32.661 h -58.159 v 149.5 h 16.089 V 775.27 h 42.07 z m 94.3,46.02 v -46.02 h -16.09 v 149.5 h 34.72 c 12,0 21.06,-2.82 27.27,-8.519 6.21,-5.66 9.34,-13.551 9.34,-23.672 v -39.098 c 0,-10.281 -3.09,-18.211 -9.22,-23.793 -6.14,-5.628 -15.28,-8.398 -27.39,-8.398 z m 39.1,32.191 v 39.098 c 0,5.82 -1.75,10.352 -5.27,13.551 -3.52,3.25 -8.59,4.851 -15.2,4.851 h -18.63 v -75.902 h 18.63 c 13.68,0 20.47,6.133 20.47,18.402 z m 109.26,-49.461 v 12.661 h 16.1 V 790.23 c 0,-10.269 -3.13,-18.199 -9.42,-23.781 -6.29,-5.629 -15.7,-8.398 -28.28,-8.398 -12.58,0 -22.07,2.769 -28.52,8.398 -6.44,5.582 -9.68,13.512 -9.68,23.781 v 92 c 0,10.27 3.16,18.2 9.45,23.821 6.29,5.59 15.7,8.398 28.28,8.398 12.58,0 22.07,-2.808 28.52,-8.398 6.44,-5.621 9.65,-13.551 9.65,-23.821 v -50.589 h -59.77 V 790.23 c 0,-12.261 7.27,-18.39 21.84,-18.39 14.57,0 21.83,6.129 21.83,18.39 z m -43.67,92 v -36.8 h 43.67 v 36.8 c 0,12.258 -7.26,18.391 -21.83,18.391 -14.57,0 -21.84,-6.133 -21.84,-18.391 z m 118.44,-15.628 V 761.48 h -16.1 v 149.5 h 6.88 l 6.68,-17 c 4.92,13.641 12.73,20.469 23.47,20.469 18.25,0 27.35,-10 27.35,-29.918 V 869.57 h -15.39 v 15.899 c 0,10.121 -4.22,15.152 -12.66,15.152 -5.08,0 -9.69,-2.891 -13.9,-8.711 -4.22,-5.859 -6.33,-14.25 -6.33,-25.308 z m 73.59,-76.372 v 120.75 h 16.09 V 790.23 c 0,-5.82 1.29,-10.351 3.79,-13.55 2.54,-3.239 7.19,-4.84 13.95,-4.84 6.72,0 12.93,2.609 18.59,7.808 5.71,5.231 8.52,10.274 8.52,15.192 v 116.14 h 16.09 v -149.5 h -6.87 l -5.98,14.731 c -3.4,-5.512 -7.73,-9.922 -13.01,-13.242 -5.27,-3.278 -11.09,-4.918 -17.34,-4.918 -22.58,0 -33.83,10.738 -33.83,32.179 z m 201.02,120.75 -33.79,-149.5 h -24.18 l -33.79,149.5 h 16.09 l 29.65,-131.8 29.92,131.8 z m 48.32,0 v -149.5 h -16.14 v 149.5 z m 117.26,-28.75 V 761.48 h -6.87 l -5.98,14.731 c -3.24,-5.512 -7.46,-9.922 -12.66,-13.242 -5.23,-3.278 -10.97,-4.918 -17.26,-4.918 -22.07,0 -33.13,10.738 -33.13,32.179 v 23.008 c 0,21.453 11.06,32.192 33.13,32.192 h 26.68 v 37.73 c 0,5.512 -1.76,9.809 -5.27,12.891 -3.52,3.051 -8.76,4.57 -15.67,4.57 -13.63,0 -20.47,-5.82 -20.47,-17.461 v -13.59 h -16.09 v 12.66 c 0,10.27 3.05,18.2 9.1,23.821 6.05,5.59 15.2,8.398 27.46,8.398 12.31,0 21.52,-2.808 27.74,-8.398 6.21,-5.621 9.29,-13.551 9.29,-23.821 z m -16.09,-88.089 v 37.5 h -26.68 c -6.45,0 -10.86,-1.602 -13.32,-4.84 -2.46,-3.211 -3.67,-7.742 -3.67,-13.563 V 790.23 c 0,-5.82 1.21,-10.351 3.67,-13.55 2.46,-3.239 6.87,-4.84 13.32,-4.84 6.44,0 12.42,2.5 17.97,7.461 5.51,5 8.4,9.961 8.71,14.84 z m 75.9,83.519 V 761.48 h -16.1 v 149.5 h 6.92 l 5.74,-14.929 c 7.34,12.269 17.54,18.398 30.59,18.398 22.53,0 33.82,-10.738 33.82,-32.219 V 761.48 h -16.13 v 120.75 c 0,5.821 -1.25,10.348 -3.79,13.59 -2.5,3.2 -7.15,4.801 -13.9,4.801 -6.76,0 -12.97,-2.57 -18.64,-7.812 -5.66,-5.188 -8.51,-10.27 -8.51,-15.149 z m 213.9,-87.43 v 12.661 h 16.1 V 790.23 c 0,-10.269 -3.13,-18.199 -9.42,-23.781 -6.29,-5.629 -15.7,-8.398 -28.28,-8.398 -12.58,0 -22.11,2.769 -28.51,8.398 -6.45,5.582 -9.69,13.512 -9.69,23.781 v 92 c 0,10.27 3.16,18.2 9.45,23.821 6.29,5.59 15.7,8.398 28.28,8.398 12.58,0 22.07,-2.808 28.52,-8.398 6.44,-5.621 9.65,-13.551 9.65,-23.821 v -21.839 h -16.1 v 21.839 c 0,12.258 -7.26,18.391 -21.83,18.391 -14.57,0 -21.88,-6.133 -21.88,-18.391 v -92 c 0,-12.261 7.31,-18.39 21.88,-18.39 14.57,0 21.83,6.129 21.83,18.39 z m 54.07,0 v 120.75 h 16.09 V 790.23 c 0,-5.82 1.25,-10.351 3.79,-13.55 2.54,-3.239 7.19,-4.84 13.9,-4.84 6.76,0 12.97,2.609 18.64,7.808 5.7,5.231 8.51,10.274 8.51,15.192 v 116.14 h 16.1 v -149.5 h -6.88 l -5.97,14.731 c -3.4,-5.512 -7.74,-9.922 -13.01,-13.242 -5.28,-3.278 -11.1,-4.918 -17.39,-4.918 -22.53,0 -33.78,10.738 -33.78,32.179 z m 139.14,120.75 v -149.5 h -16.1 v 149.5 z M 2394.3,790.23 c 0,-21.441 -12.97,-32.179 -38.87,-32.179 -25.9,0 -38.87,10.738 -38.87,32.179 v 19.571 h 16.1 V 789.34 c 0,-5.551 1.91,-9.852 5.74,-12.891 3.83,-3.09 9.53,-4.609 17.03,-4.609 7.5,0 13.2,1.519 17.03,4.609 3.83,3.039 5.74,7.223 5.74,12.531 0,5.282 -0.58,9.5 -1.72,12.661 -1.17,3.129 -3.51,6.449 -7.03,10 l -40.47,39.531 c -4.76,4.769 -8,9.418 -9.76,13.949 -1.76,4.488 -2.66,10.231 -2.66,17.109 0,10.27 3.17,18.2 9.53,23.821 6.37,5.59 16.02,8.398 28.87,8.398 24.69,0 37.03,-10.738 37.03,-32.219 v -19.531 h -16.09 v 20.461 c 0,5.512 -1.8,9.809 -5.39,12.891 -3.63,3.051 -9.03,4.57 -16.21,4.57 -7.23,0 -12.62,-1.519 -16.25,-4.57 -3.6,-3.082 -5.39,-7.301 -5.39,-12.653 0,-5.386 0.54,-9.609 1.6,-12.66 1.09,-3.078 3.47,-6.289 7.15,-9.648 l 41.17,-39.57 c 4.45,-4.918 7.5,-9.61 9.18,-14.141 1.68,-4.527 2.54,-10.231 2.54,-17.149 z m 57.5,120.75 v -149.5 h -16.1 v 149.5 z m 62.11,-33.32 V 761.48 h -16.1 v 149.5 h 6.88 l 5.78,-14.929 c 7.34,12.269 17.54,18.398 30.58,18.398 22.54,0 33.79,-10.738 33.79,-32.219 V 761.48 h -16.09 v 120.75 c 0,5.821 -1.25,10.348 -3.79,13.59 -2.54,3.2 -7.19,4.801 -13.91,4.801 -6.75,0 -12.96,-2.57 -18.63,-7.812 -5.7,-5.188 -8.51,-10.27 -8.51,-15.149 z m 160.97,-87.43 v 12.661 h 16.14 V 790.23 c 0,-10.269 -3.17,-18.199 -9.46,-23.781 -6.29,-5.629 -15.7,-8.398 -28.28,-8.398 -12.58,0 -22.07,2.769 -28.51,8.398 -6.45,5.582 -9.65,13.512 -9.65,23.781 v 92 c 0,10.27 3.12,18.2 9.41,23.821 6.29,5.59 15.7,8.398 28.28,8.398 12.58,0 22.07,-2.808 28.52,-8.398 6.44,-5.621 9.69,-13.551 9.69,-23.821 v -50.589 h -59.81 V 790.23 c 0,-12.261 7.27,-18.39 21.84,-18.39 14.57,0 21.83,6.129 21.83,18.39 z m -43.67,92 v -36.8 h 43.67 v 36.8 c 0,12.258 -7.26,18.391 -21.83,18.391 -14.57,0 -21.84,-6.133 -21.84,-18.391 z" /></g></g></svg>